<svg width="62" height="61" viewBox="0 0 62 61" fill="none" xmlns="http://www.w3.org/2000/svg">
<path d="M49.7786 9.97647H12.2214C9.11001 9.97647 6.58777 12.4804 6.58777 15.5692V45.3968C6.58777 48.4856 9.11001 50.9895 12.2214 50.9895H49.7786C52.8899 50.9895 55.4122 48.4856 55.4122 45.3968V15.5692C55.4122 12.4804 52.8899 9.97647 49.7786 9.97647Z" stroke="black" stroke-opacity="0.4" stroke-width="2" stroke-linejoin="round"/>
<path d="M40.3893 24.8903C42.4635 24.8903 44.145 23.221 44.145 21.1619C44.145 19.1027 42.4635 17.4334 40.3893 17.4334C38.315 17.4334 36.6335 19.1027 36.6335 21.1619C36.6335 23.221 38.315 24.8903 40.3893 24.8903Z" stroke="black" stroke-opacity="0.4" stroke-width="2" stroke-miterlimit="10"/>
<path d="M36.6336 39.7797L25.9931 29.2363C25.316 28.5643 24.406 28.1744 23.449 28.1462C22.492 28.1181 21.5602 28.4538 20.8443 29.0849L6.58777 41.6684M27.2443 50.9896L41.7202 36.6187C42.3822 35.9601 43.2684 35.5711 44.2045 35.528C45.1407 35.4849 46.0593 35.7908 46.7799 36.3857L55.4122 43.5326" stroke="black" stroke-opacity="0.4" stroke-width="2" stroke-linecap="round" stroke-linejoin="round"/>
</svg>
